<svg width="512" height="512" xmlns="http://www.w3.org/2000/svg">

 <g>
  <title>background</title>
  <rect fill="none" id="canvas_background" height="402" width="582" y="-1" x="-1"/>
 </g>
 <g>
  <title>Layer 1</title>
  <path fill="#2ec866" id="svg_2" d="m454.843,141.001c-13.019,-22.417 -172.832,-115 -198.859,-115c-26.019,0 -185.895,92.351 -198.84,115c-12.947,22.649 -13.019,207.358 0,230.009c13.018,22.639 172.839,114.989 198.84,114.989c26,0 185.841,-92.466 198.851,-114.999c13.007,-22.533 13.016,-207.583 0.008,-229.999zm-144.981,257.149c-3.559,0 -36.756,-32.137 -34.141,-34.762c0.781,-0.78 5.625,-1.328 15.768,-1.644c0,-23.564 0.53,-61.622 0.844,-77.553c0.038,-1.814 -0.395,-3.081 -0.395,-5.256l-71.812,0c0,6.379 -0.412,32.523 1.232,65.479c0.205,4.078 -1.42,5.353 -5.158,5.335c-9.102,-0.025 -18.211,-0.099 -27.321,-0.071c-3.683,0.009 -5.274,-1.374 -5.157,-5.488c0.826,-30.043 2.66,-75.488 -0.134,-191.07l0,-2.849c-8.688,-0.314 -14.717,-0.862 -15.508,-1.652c-2.624,-2.624 31.032,-34.76 34.581,-34.76c3.558,0 36.989,32.145 34.383,34.76c-0.782,0.781 -7.098,1.338 -15.067,1.652l0,2.84c-2.174,23.135 -1.823,71.506 -2.362,94.686l72.107,0c0,-4.089 0.351,-31.212 -1.077,-75.145c-0.091,-3.047 0.853,-4.646 3.781,-4.672c9.945,-0.072 19.9,-0.117 29.855,-0.055c3.108,0.019 4.105,1.546 4.043,4.834c-3.28,171.861 -0.594,159.867 -0.594,188.975c7.97,0.315 15.112,0.864 15.895,1.655c2.588,2.615 -30.205,34.761 -33.763,34.761l0,0z"/>
 </g>
</svg>